<?xml version="1.0" encoding="UTF-8"?>
<!DOCTYPE svg PUBLIC "-//W3C//DTD SVG 1.1//EN" "http://www.w3.org/Graphics/SVG/1.1/DTD/svg11.dtd">
<!-- Creator: CorelDRAW 2020 (64 Bit) -->
<svg xmlns="http://www.w3.org/2000/svg" xml:space="preserve" width="300mm" height="300mm" version="1.1" style="shape-rendering:geometricPrecision; text-rendering:geometricPrecision; image-rendering:optimizeQuality; fill-rule:evenodd; clip-rule:evenodd"
viewBox="0 0 30000 30000"
 xmlns:xlink="http://www.w3.org/1999/xlink"
 xmlns:xodm="http://www.corel.com/coreldraw/odm/2003">
 <defs>
  <style type="text/css">
   <![CDATA[
    .str0 {stroke:#F2C13B;stroke-width:20;stroke-miterlimit:22.9256}
    .fil1 {fill:#F2C13B}
    .fil0 {fill:#F2C13B;fill-rule:nonzero}
   ]]>
  </style>
 </defs>
 <g id="Camada_x0020_1">
  <metadata id="CorelCorpID_0Corel-Layer"/>
  <g id="dumbell.svg">
   <g>
    <g>
     <path class="fil0" d="M27993 8373.96l-1304.35 0c-229.57,0 -447.39,46.96 -652.17,120l0 -2076.52c0,-1078.7 -877.83,-1956.52 -1956.52,-1956.52l-1304.35 0c-1078.7,0 -1956.52,877.83 -1956.52,1956.52l0 4565.22 -11739.14 0 0 -4565.22c0,-1078.7 -877.83,-1956.52 -1956.52,-1956.52l-1304.34 0c-1078.7,0 -1956.52,877.83 -1956.52,1956.52l0 2076.52c-204.78,-73.04 -422.61,-120 -652.17,-120l-1304.36 0c-1078.7,0 -1956.52,877.83 -1956.52,1956.52l0 7826.09c0,1078.7 877.83,1956.52 1956.52,1956.52l1304.35 0.01c229.57,0 447.39,-46.96 652.17,-120l0 2076.52c0,1078.7 877.83,1956.52 1956.52,1956.52l1304.35 0c1078.7,0 1956.52,-877.83 1956.52,-1956.52l0 -4565.22 11739.14 0 0 4565.22c0,1078.7 877.83,1956.52 1956.52,1956.52l1304.34 0c1078.7,0 1956.52,-877.83 1956.52,-1956.52l0 -2076.52c204.78,73.04 422.61,120 652.17,120l1304.36 0c1078.7,0 1956.52,-877.83 1956.52,-1956.52l0 -7826.09c0,-1078.7 -877.83,-1956.53 -1956.52,-1956.53zm-24130.44 9782.61c0,359.35 -292.83,652.17 -652.17,652.17l-1304.35 0.01c-359.35,0 -652.17,-292.83 -652.17,-652.17l0 -7826.09c0,-359.35 292.83,-652.17 652.17,-652.17l1304.35 -0.01c359.35,0 652.17,292.83 652.17,652.17l0 7826.09zm3913.05 3913.05c0,359.35 -292.83,652.17 -652.17,652.17l-1304.35 0c-359.35,0 -652.17,-292.83 -652.17,-652.17l0 -3913.04 0 -7826.09 -0.01 -3913.05c0,-359.35 292.83,-652.17 652.17,-652.17l1304.35 0c359.35,0 652.17,292.83 652.17,652.17l0.01 15652.18zm13043.48 -5869.57l-11739.14 0 0 -3913.04 11739.14 0 0 3913.04zm3913.04 -5869.56l0 7826.09 0 3913.04c0,359.35 -292.83,652.17 -652.17,652.17l-1304.35 0c-359.35,0 -652.17,-292.83 -652.17,-652.17l-0.01 -15652.18c0,-359.35 292.83,-652.17 652.17,-652.17l1304.35 0c359.35,0 652.17,292.83 652.17,652.17l0.01 3913.05zm3913.04 7826.08c0,359.35 -292.83,652.17 -652.17,652.17l-1304.35 0.01c-359.35,0 -652.17,-292.83 -652.17,-652.17l0 -7826.09c0,-359.35 292.83,-652.17 652.17,-652.17l1304.35 -0.01c359.35,0 652.17,292.83 652.17,652.17l0 7826.09z"/>
    </g>
   </g>
   <g>
   </g>
   <g>
   </g>
   <g>
   </g>
   <g>
   </g>
   <g>
   </g>
   <g>
   </g>
   <g>
   </g>
   <g>
   </g>
   <g>
   </g>
   <g>
   </g>
   <g>
   </g>
   <g>
   </g>
   <g>
   </g>
   <g>
   </g>
   <g>
   </g>
  </g>
  <rect class="fil1 str0" x="807.28" y="9579.38" width="3497.64" height="9386.06"/>
  <rect class="fil1 str0" x="4880.48" y="5765.27" width="3497.64" height="16956.52"/>
  <rect class="fil1 str0" x="21837.39" y="5765.27" width="3497.64" height="16956.52"/>
  <rect class="fil1 str0" x="25556.4" y="9535.11" width="3497.64" height="9386.06"/>
  <rect class="fil1 str0" transform="matrix(-0.011717 -1.24347 1.46007 -0.00997874 8419.1 16486.1)" width="3497.64" height="9386.06"/>
 </g>
</svg>
