<?xml version="1.0" encoding="UTF-8"?>
<!DOCTYPE svg PUBLIC "-//W3C//DTD SVG 1.1//EN" "http://www.w3.org/Graphics/SVG/1.1/DTD/svg11.dtd">
<!-- Creator: CorelDRAW 2020 (64 Bit) -->
<svg xmlns="http://www.w3.org/2000/svg" xml:space="preserve" width="300mm" height="300mm" version="1.1" style="shape-rendering:geometricPrecision; text-rendering:geometricPrecision; image-rendering:optimizeQuality; fill-rule:evenodd; clip-rule:evenodd"
viewBox="0 0 30000 30000"
 xmlns:xlink="http://www.w3.org/1999/xlink"
 xmlns:xodm="http://www.corel.com/coreldraw/odm/2003">
 <defs>
  <style type="text/css">
   <![CDATA[
    .fil0 {fill:#F2C13B;fill-rule:nonzero}
   ]]>
  </style>
 </defs>
 <g id="Camada_x0020_1">
  <metadata id="CorelCorpID_0Corel-Layer"/>
  <g id="_1456484797792">
   <g>
    <path class="fil0" d="M29051.12 13435.59c516.69,-568.27 466.8,-1439.24 -111.4,-1944.88l-12738.6 -11146.34c-578.21,-505.64 -1505.21,-495.05 -2071.24,23.88l-12781.9 11716.73c-566.04,518.93 -593.82,1388.79 -61.52,1942.09l320.47 333.75c531.66,553.3 1391.02,619.27 1918.21,146.9l955.25 -855.46 0 12524.06c0,768.4 622.62,1390.46 1390.46,1390.46l4982.41 0.01c767.84,0 1390.46,-622.06 1390.46,-1390.46l0 -8761.79 6355.13 -0.01 0 8761.79c-11.06,767.84 538.35,1389.9 1306.18,1389.9l5280.13 0.01c767.84,0 1390.46,-622.06 1390.46,-1390.46l0 -12347.16c0,0 263.87,231.17 589.35,517.25 324.93,285.53 1007.38,56.59 1524.08,-512.23l362.07 -398.04z"/>
   </g>
   <g>
   </g>
   <g>
   </g>
   <g>
   </g>
   <g>
   </g>
   <g>
   </g>
   <g>
   </g>
   <g>
   </g>
   <g>
   </g>
   <g>
   </g>
   <g>
   </g>
   <g>
   </g>
   <g>
   </g>
   <g>
   </g>
   <g>
   </g>
   <g>
   </g>
  </g>
 </g>
</svg>
