<?xml version="1.0" encoding="UTF-8"?>
<!DOCTYPE svg PUBLIC "-//W3C//DTD SVG 1.1//EN" "http://www.w3.org/Graphics/SVG/1.1/DTD/svg11.dtd">
<!-- Creator: CorelDRAW 2020 (64 Bit) -->
<svg xmlns="http://www.w3.org/2000/svg" xml:space="preserve" width="300mm" height="300mm" version="1.1" style="shape-rendering:geometricPrecision; text-rendering:geometricPrecision; image-rendering:optimizeQuality; fill-rule:evenodd; clip-rule:evenodd"
viewBox="0 0 30000 30000"
 xmlns:xlink="http://www.w3.org/1999/xlink"
 xmlns:xodm="http://www.corel.com/coreldraw/odm/2003">
 <defs>
  <style type="text/css">
   <![CDATA[
    .str0 {stroke:#393939;stroke-width:7.62;stroke-miterlimit:22.9256}
    .fil0 {fill:#393939}
    .fil1 {fill:#F7E805}
    .fil2 {fill:#FFFFFD}
   ]]>
  </style>
 </defs>
 <g id="Camada_x0020_1">
  <metadata id="CorelCorpID_0Corel-Layer"/>
  <g id="_3093842956944">
   <path class="fil0" d="M13961.36 11792.33c58.24,263.74 217.31,553.41 327.58,819.42l548.45 1210.61c54.08,115.05 67.58,175.23 116.47,274.5l541.24 1222.28c137.66,293.42 114.38,383.56 290.5,474.38l1413.94 -3167.22c109.45,-241.87 167.95,-292.37 121.57,-411.58l-50.83 -69.61c48.79,35.56 8.98,72.36 34.93,-35.28 -13.69,4.99 -27.19,12.4 -39.16,19.43l-134.51 101.73c-41.06,46.58 -53.2,77.42 -85.6,118.37 -306.46,387.3 -994.04,1304.32 -1510.19,1060.47 -257.15,-121.49 -475.54,-332.51 -642.52,-543.92 -163.24,-206.67 -286.28,-314.71 -521.04,-638.06 -209.28,-288.25 -190.4,-352.73 -410.83,-435.52z"/>
   <path class="fil1" d="M4711.22 15608.89l0 21.35c250.57,-10.43 1054.48,-444.98 1243.43,-584.01 393.51,-289.55 581.76,-561.44 588.74,-1243.83 326.47,32.14 871.79,190.5 1160.14,165.54 -481.79,-186.65 -2450.28,-877.54 -2078.58,-1650.37 134.05,-278.73 506.48,-353.3 697.52,-430.23l129.45 -72.66c-2067.4,-100.77 -946.66,1217.04 -730.77,1684.49 228.43,494.57 50.79,880.53 -184.26,1235.25 -135.05,203.82 -639.6,768.93 -825.67,874.47z"/>
   <path class="fil1" d="M11540.81 15023.4c-49.15,-7.29 -244.51,-18.91 -258.89,-131.13 -18.51,-144.38 108.1,-175.26 245.73,-164.65l13.16 295.78zm-691.77 511.93c-17.19,441.37 -76.19,505.36 360.11,547.79 281.21,27.35 552.37,3.58 733.44,-164.41 288.78,-267.91 244.44,-1233.22 8.67,-1488.3 -664.95,-719.43 -1601.85,132.54 -1099.75,817.21 143.7,195.95 304.48,285.39 610.36,283.53 -173.67,133.01 -349.14,32.42 -612.83,4.18z"/>
   <path class="fil0" d="M20216.03 14833.32c64.62,35.74 69.5,-151.83 67.1,345.47 -0.56,117.69 0.52,235.71 0.45,362.88l468.31 -12.89c3.4,-140.09 6.48,-283.14 4.39,-423.18 -3.25,-218.54 -76.3,-293.23 22.02,-385.22 -86.05,-164.41 -126.48,-429.41 -545.33,-512.88 -795.59,-158.54 -1087.3,655.97 -795.78,1127.67 201.5,326.02 498.09,302.08 796.07,302.08l0 -528.99c-85.9,-69.68 -332.64,-43.52 -276.23,-225.13 47.54,-153.05 169.61,-62.34 259,-49.81z"/>
   <path class="fil1" d="M13896.32 14989.55c-60.26,-216.75 35.6,-315.32 265.7,-252.94l16.09 315.94c-81.55,-37.13 -163.92,-32.25 -281.79,-63zm855.36 531.05c23.59,-505.87 33.9,-869.59 -264.2,-1157.5 -284.83,-275.07 -750.6,-286.79 -1018.51,13.41 -414.49,464.44 43.04,1342.94 671.46,1158.77 157.57,-46.18 53.79,-12.58 270.07,2.31 112.51,7.75 232.34,4.44 341.18,-16.99z"/>
   <path class="fil1" d="M7488.41 15355.2c3.74,-324.51 -67.24,-584.49 80.31,-659.39 63.17,89.54 46.77,179.81 46.89,306.61l0.41 416.46c38.26,168.38 237.67,118.45 556.82,118.13 16.03,-623.77 110.88,-1170.31 -429.11,-1344.09 -252.26,-81.18 -544.68,-12.68 -682.74,125.46 -155.08,155.17 -148.77,407.02 -148.99,684.04 -0.38,476.9 -45.53,533.32 233.39,533.79l341.38 -13.12 1.64 -167.89z"/>
   <path class="fil0" d="M18256.99 15090.76c-103.38,-22.98 -137.47,-10.1 -164.68,-56.93 -24.97,-42.97 -10.99,-172.68 -10.95,-241.69l279.72 -11.6 -4.87 -549.41 -274.89 -4.64 -7.01 -283.54c-13.56,-87.51 21,-121.05 -202.54,-141.46 -333.06,-30.4 -425.1,-25.23 -425.1,142.6 0,1146.88 -194.24,1839.02 899.22,1675.5 14.44,-96.59 21.88,-167.79 21.29,-266.33l-38.92 -244.83 -71.27 -17.67z"/>
   <path class="fil1" d="M10530.66 14649.65c-23.86,-592.99 -1219.49,-748.59 -1298.48,109.52 -78.15,849.01 1011.38,1011.75 1362.88,527.67 -49.55,-164.94 -193.1,-202.83 -309.95,-354.68 -169.82,65.35 -583.48,402.31 -528.21,-191.92 31.89,29.3 21.95,18.41 55.29,61.69 1.84,2.39 42.02,62.52 44.35,66.16 32.21,50.43 39.49,71.89 81.26,128.41l592.86 -346.85z"/>
   <path class="fil1" d="M8845.24 14691.52l271.67 -8.06c4.77,-72.75 15.39,-323.63 -0.2,-383.65 -35.73,-137.51 -105.27,-110.78 -273.22,-113.54 -3.58,-63.88 1.17,-154.31 -4.14,-209.51 -23.19,-241.01 -101.73,-218.87 -551.59,-195.57 -36.85,272.75 -34.43,1009.56 -1.24,1286.04 49.3,410.66 400.95,507.12 832.15,466.04 2.84,-691.85 -37.73,-366.1 -280.62,-530.89l7.19 -310.86z"/>
   <path class="fil1" d="M12794.08 15537.16c14.93,-672.46 -110.84,-844 465.13,-879.9 0.14,-178.78 20.08,-351.93 -34.54,-479.71 -265.07,-74.86 -359.08,59.87 -463.93,53.2 -41.87,-2.66 -107.49,-42.24 -251.05,-45.69 -91.43,-2.2 -183.94,2.43 -274.19,13.45 -0.79,1262.38 -130.65,1335.61 269.76,1340.26 94.67,1.1 193.37,-1.78 288.82,-1.61z"/>
   <path class="fil0" d="M18937.82 14717.52l267.46 -10.72 5.63 -410.31 -269.09 -15.37 -19.4 -396.79 -448.35 -1.14c-36.82,270.71 -31.55,944.09 -10.56,1226.91 33.11,446.22 309.01,457.92 756.14,450.82l-8.56 -392.64 -256.18 -61.17 -17.09 -389.59z"/>
   <path class="fil0" d="M15655.54 12139.39c-570.06,207.53 -293.26,1136.27 212.29,967.68 495.09,-165.1 307.47,-1156.9 -212.29,-967.68z"/>
   <path class="fil0" d="M16804.6 15590.98l55.69 21.7c61.99,-54.38 -38.3,-26.78 125.8,-58.94l327.66 1.36 -8.34 -1245.39 -451.43 1.13 -0.31 1009.08c0.02,218.06 28.09,167.4 -49.07,271.06z"/>
   <path class="fil0" d="M8908.25 14099.16l281.2 -0.76c2.86,-193.62 -55.11,-502.38 37.32,-652.51 111.7,38.12 96.16,-42.48 58.02,117.88 -11.53,48.49 -81.75,-3.76 -42.31,190.84 28.99,143.04 13.09,-39.77 59.2,162.33 28.61,125.43 -30.42,120.99 58.64,176.51 333.44,207.88 251.96,-504.21 231.73,-626.22 -45.9,-276.78 -346.76,-405.52 -565.68,-217.46 -181.56,155.95 -123.89,571.83 -118.12,849.39z"/>
   <path class="fil0" d="M12834.11 14094.21c24.81,-159.32 -30.61,-310.71 61.55,-417.05 89.44,113.3 35.62,261.71 60.91,422.43l230.52 -5.18c39.33,-171.55 -36.29,-302.39 61.35,-417.86 93.42,109.92 25.48,255.53 61.54,420.96l229.28 -3.71c190.97,-888.38 -457.53,-617.44 -469.76,-617.38 -104.8,0.52 -629.4,-234.19 -465.67,622.87l230.28 -5.08z"/>
   <path class="fil1" d="M6380.49 12455.62c-526.81,113.01 -375.64,763.12 161.11,677.62 460.75,-73.39 380.08,-793.73 -161.11,-677.62z"/>
   <path class="fil0" d="M11426.11 13854.89c-114.77,14.87 -103.75,6.37 -139.06,-87.19 115.35,-207.52 171.05,85.46 157.29,-336.37 -579,7.91 -463.83,622.48 -126.09,680.25 466.5,79.8 478.09,-563.15 399.29,-928.2l-224.98 -1.44c-40.53,187.12 6,359.52 -10.72,515.74 -4.93,46 -3.55,45.85 -18.01,88.48 -19.17,56.54 -17.82,42.74 -37.72,68.73z"/>
   <path class="fil0" d="M16942.75 13556.21c-416.29,192.35 -174.27,806.01 290.02,646.23 370.16,-127.38 218.86,-881.34 -290.02,-646.23z"/>
   <path class="fil0" d="M14400.91 14106.32c55.4,-452.83 -117.35,-97.25 -148.47,-359.73 84.68,-76.86 7.81,-54.1 159.55,-47.59l36.87 397.1 251.72 -1.37c2.52,-190.68 15.54,-398.33 -84.69,-529.95 -84.26,-110.64 -269.3,-183.56 -460.25,-90 -250.93,122.96 -249.66,664.37 245.27,631.54z"/>
   <path class="fil0" d="M10646.51 14113.91c5.45,-45.81 17.79,-90.33 9.47,-137.28 -21.56,-121.66 -2.1,-47.63 -73.04,-121.58 -70.36,-73.35 -158.4,-89.77 19.67,-169.7 147.75,87.05 98.39,224.86 94.54,412.58l256.18 1.1c26.35,-1067.78 -795.76,-691.05 -693.93,-237.17 41.47,184.86 176.07,243.16 387.11,252.05z"/>
   <path class="fil0" d="M12491.19 13965.62l-92.58 -123.2c-119.85,10.31 -177.71,87.35 -259.34,41.86 -128.58,-71.66 -80.87,-188.5 15.56,-249.89 85.61,105.08 -9.37,-95.56 -8.33,111.79 0.56,111.83 -32.1,77.2 69.86,80.13 78.19,2.25 230.65,-107.52 273.39,-164.44 -149.13,-342.62 -622.57,-290.16 -656.25,72.71 -39.75,428.32 446.53,471.16 657.69,231.04z"/>
   <path class="fil0" d="M10165.52 13908.82c-134.34,-88.37 -95.82,31.68 -203.86,-105.84 37.13,-206.98 63.24,-58.22 204.58,-176.39l-0.01 -164.29c-568.1,-100.61 -590.41,506.06 -237.91,630.56 225.01,79.47 238.76,4.19 237.2,-184.04z"/>
   <path class="fil0 str0" d="M16804.6 15590.98c77.16,-103.66 49.09,-53 49.07,-271.06l0.31 -1009.08 451.43 -1.13 8.34 1245.39 -327.66 -1.36c-164.1,32.16 -63.81,4.56 -125.8,58.94l500.15 -8.76 -2.31 -1354.82 -551.51 2.13 -2.02 1339.75z"/>
   <path class="fil0" d="M13671.77 14091.05l227.44 9.62 1.3 -652.31 -250.92 5.98c-9.04,200.11 -43.84,475.14 22.18,636.71z"/>
   <path class="fil0" d="M20216.03 14833.32l-1.18 757.17 564.32 -7.06c73.26,-276.15 -1.55,-582.82 -0.87,-863.05 -98.32,91.99 -25.27,166.68 -22.02,385.22 2.09,140.04 -0.99,283.09 -4.39,423.18l-468.31 12.89c0.07,-127.17 -1.01,-245.19 -0.45,-362.88 2.4,-497.3 -2.48,-309.73 -67.1,-345.47z"/>
   <path class="fil2" d="M13896.32 14989.55c117.87,30.75 200.24,25.87 281.79,63l-16.09 -315.94c-230.1,-62.38 -325.96,36.19 -265.7,252.94z"/>
   <path class="fil0" d="M13898.02 13359.36c43.44,-201.31 -66.94,-383.47 -228.73,-226.8 -146.89,142.23 11.96,288.08 228.73,226.8z"/>
   <path class="fil2" d="M11540.81 15023.4l-13.16 -295.78c-137.63,-10.61 -264.24,20.27 -245.73,164.65 14.38,112.22 209.74,123.84 258.89,131.13z"/>
  </g>
 </g>
</svg>
