<svg width="219" height="191" viewBox="0 0 219 191" fill="none" xmlns="http://www.w3.org/2000/svg">
<g clip-path="url(#clip0)">
<path d="M145.708 30.6897H144.513C144.249 30.6897 144.035 30.8727 144.035 31.0984V45.4537C144.035 45.6794 144.249 45.8623 144.513 45.8623H145.708C145.972 45.8623 146.186 45.6794 146.186 45.4537V31.0984C146.186 30.8727 145.972 30.6897 145.708 30.6897Z" fill="#3F3D56"/>
<path d="M73.4276 18.8025H72.8456C72.6729 18.8025 72.5328 18.9224 72.5328 19.0702V23.5299C72.5328 23.6778 72.6729 23.7976 72.8456 23.7976H73.4276C73.6003 23.7976 73.7404 23.6778 73.7404 23.5299V19.0702C73.7404 18.9224 73.6003 18.8025 73.4276 18.8025Z" fill="#3F3D56"/>
<path d="M73.4964 27.9486H72.8415C72.6468 27.9486 72.489 28.0836 72.489 28.2502V36.3415C72.489 36.5081 72.6468 36.6431 72.8415 36.6431H73.4964C73.6911 36.6431 73.8489 36.5081 73.8489 36.3415V28.2502C73.8489 28.0836 73.6911 27.9486 73.4964 27.9486Z" fill="#3F3D56"/>
<path d="M73.4693 39.6841H72.8457C72.6602 39.6841 72.5099 39.8127 72.5099 39.9714V48.1663C72.5099 48.3249 72.6602 48.4536 72.8457 48.4536H73.4693C73.6548 48.4536 73.8051 48.3249 73.8051 48.1663V39.9714C73.8051 39.8127 73.6548 39.6841 73.4693 39.6841Z" fill="#3F3D56"/>
<path d="M137.751 2.29678H80.6609C76.5497 2.29678 73.2169 5.14838 73.2169 8.66601V121.094C73.2169 124.611 76.5497 127.463 80.6609 127.463H137.751C141.862 127.463 145.195 124.611 145.195 121.094V8.66601C145.195 5.14838 141.862 2.29678 137.751 2.29678Z" fill="#464646"/>
<path d="M111.784 6.03369H102.792C102.5 6.03369 102.263 6.23663 102.263 6.48698V7.32752C102.263 7.57787 102.5 7.78081 102.792 7.78081H111.784C112.076 7.78081 112.314 7.57787 112.314 7.32752V6.48698C112.314 6.23663 112.076 6.03369 111.784 6.03369Z" fill="#E6E8EC"/>
<path d="M114.992 7.89683C115.631 7.89683 116.149 7.45339 116.149 6.90638C116.149 6.35936 115.631 5.91592 114.992 5.91592C114.352 5.91592 113.834 6.35936 113.834 6.90638C113.834 7.45339 114.352 7.89683 114.992 7.89683Z" fill="#E6E8EC"/>
<path d="M140.75 10.447V119.307C140.75 120.604 140.147 121.848 139.075 122.765C138.003 123.682 136.549 124.197 135.033 124.197H83.3785C81.8627 124.197 80.4088 123.682 79.3368 122.765C78.2647 121.848 77.6621 120.604 77.6616 119.307V10.447C77.6616 9.80466 77.8094 9.16858 78.0968 8.5751C78.3841 7.98163 78.8052 7.44239 79.336 6.98816C79.8669 6.53394 80.4971 6.17363 81.1907 5.9278C81.8844 5.68198 82.6278 5.55545 83.3785 5.55545H91.1082V6.40492C91.1104 7.47209 91.6073 8.49494 92.4898 9.24905C93.3723 10.0032 94.5684 10.4269 95.8156 10.4274H122.096C122.714 10.4274 123.326 10.3232 123.897 10.1208C124.468 9.91838 124.987 9.62169 125.424 9.24767C125.861 8.87365 126.208 8.42963 126.445 7.94095C126.681 7.45227 126.803 6.92851 126.803 6.39957V5.55545H135.044C136.558 5.55781 138.01 6.07422 139.079 6.99131C140.149 7.90841 140.75 9.15125 140.75 10.447V10.447Z" fill="white"/>
<path opacity="0.2" d="M141.203 55.3992V92.4171H140.75V92.4546H77.6616V47.2293C78.0662 46.8344 78.4764 46.4245 78.8921 45.9998C87.7523 36.9465 99.7952 34.5641 109.116 34.3142C115.503 34.1358 121.86 35.2654 127.929 37.5086C131.135 38.6936 135.736 39.9928 140.75 40.1213V54.1161C141.057 54.8638 141.203 55.3992 141.203 55.3992Z" fill="#F7E805"/>
<path opacity="0.2" d="M141.203 55.3992V92.4171H77.6616V68.168C79.9246 67.6808 83.0844 65.807 87.1391 60.6299C91.9884 54.4355 98.5771 52.8062 103.677 52.6349C107.17 52.5171 110.649 53.2845 113.97 54.821C117.705 56.5467 124.905 58.6276 130.376 52.5867C136.425 45.907 139.641 51.416 140.75 54.1161C141.057 54.8639 141.203 55.3992 141.203 55.3992Z" fill="#F7E805"/>
<path d="M132.026 85.6374H86.5572C85.1749 85.6374 84.0543 86.5962 84.0543 87.7789V97.0588C84.0543 98.2416 85.1749 99.2004 86.5572 99.2004H132.026C133.408 99.2004 134.529 98.2416 134.529 97.0588V87.7789C134.529 86.5962 133.408 85.6374 132.026 85.6374Z" fill="#474747"/>
<path d="M143.497 107.231H75.5029V125.256H143.497V107.231Z" fill="#464646"/>
<path d="M106.58 113.056V119.427L112.42 116.241L106.58 113.056Z" fill="white"/>
<path d="M55 119.994L55.2087 128.137L57.5049 129.467H65.4438L66.9072 127.805V119.994L64.6088 118.334H57.0874L55 119.994Z" fill="#F2C13B"/>
<path opacity="0.2" d="M56.2524 120.167C56.2524 120.167 57.7159 127.644 56.2524 128.31L55.2087 128.144L55 120.167H56.2524Z" fill="white"/>
<path d="M77.9795 119.33L79.6517 118H87.5928L89.265 119.33C89.265 119.33 91.3547 124.148 89.6825 127.305L87.8016 128.801H79.8604L77.9795 127.471V119.33Z" fill="#F2C13B"/>
<path opacity="0.2" d="M79.8582 119.662C79.8582 119.662 81.5303 125.479 79.8582 127.471H77.9772V119.33L79.8582 119.662Z" fill="white"/>
<path d="M66.8482 122.488H78.1497C79.0345 122.488 79.7515 123.12 79.7515 123.901C79.7515 124.681 79.0345 125.314 78.1497 125.314H66.8482C65.8885 125.314 65.1443 124.576 65.26 123.737C65.353 123.024 66.0382 122.488 66.8482 122.488Z" fill="#F2C13B"/>
<path opacity="0.1" d="M6.48056 52.4457C4.73804 56.6415 9.86124 60.4151 13.8908 63.4541C19.4064 67.6233 23.7585 72.6681 26.6648 78.2614C28.4164 81.6415 29.6348 85.2779 29.308 88.9252C28.3823 99.2695 16.1348 106.162 6.34897 113.014C4.96266 113.994 3.57636 115.019 2.76863 116.34C0.175269 120.579 4.58376 125.464 9.43922 128.168C26.7306 137.79 51.6885 134.928 68.4603 124.741C77.1457 119.464 84.6104 112.288 95.1358 109.942C101.865 108.45 109.008 109.157 115.971 109.617C126.412 110.306 136.901 110.404 147.359 109.913C151.03 109.733 154.869 109.451 157.944 107.847C165.728 103.79 164.415 94.1713 170.032 88.2701C174.071 84.0291 180.971 82.3941 186.977 80.0498C196.221 76.4216 203.934 70.7284 209.173 63.6671C213.995 57.1396 216.493 49.7188 218.93 42.4027C220.768 36.9057 222.612 31.1488 221.056 25.5959C219.499 20.0429 213.355 14.8581 206.231 15.3454C200.76 15.7189 196.409 19.1568 191.14 20.3876C178.52 23.3436 166.268 13.0769 153.177 14.0676C144.934 14.6903 138.286 19.6621 133.26 24.8956C128.235 30.1292 123.98 36.0214 117.344 39.9628C107.02 46.0987 92.876 46.3152 80.2382 44.3283C67.6004 42.3413 55.4753 38.4306 42.6969 37.1277C35.1686 36.3607 29.3988 39.9285 22.6193 41.8902C16.398 43.6912 8.78577 46.8963 6.48056 52.4457Z" fill="#F7E805"/>
<path fill-rule="evenodd" clip-rule="evenodd" d="M100 97.9329V98C100.754 97.9672 103.172 96.6025 103.74 96.1659C104.923 95.2566 105.49 94.4027 105.511 92.2597C106.493 92.3606 108.133 92.8579 109 92.7795C107.551 92.1934 101.63 90.0236 102.748 87.5965C103.151 86.7212 104.272 86.487 104.846 86.2454L105.236 86.0172C99.0174 85.7007 102.388 89.8393 103.038 91.3074C103.725 92.8606 103.19 94.0727 102.483 95.1867C102.077 95.8268 100.56 97.6015 100 97.9329V97.9329Z" fill="#F7E805"/>
<path fill-rule="evenodd" clip-rule="evenodd" d="M104.829 88.0362C103.493 88.36 103.876 90.2229 105.237 89.9779C106.406 89.7676 106.202 87.7035 104.829 88.0362Z" fill="#F7E805"/>
<path fill-rule="evenodd" clip-rule="evenodd" d="M109 86C109.173 86.791 109.644 87.6597 109.97 88.4575L111.595 92.0883C111.755 92.4333 111.795 92.6138 111.94 92.9115L113.543 96.5773C113.951 97.4573 113.882 97.7276 114.404 98L118.592 88.5012C118.917 87.7758 119.09 87.6243 118.953 87.2668L118.802 87.058C118.946 87.1647 118.829 87.275 118.905 86.9522C118.865 86.9672 118.825 86.9894 118.789 87.0105L118.391 87.3156C118.269 87.4553 118.233 87.5478 118.137 87.6706C117.23 88.8321 115.193 91.5824 113.664 90.8511C112.902 90.4867 112.255 89.8538 111.76 89.2198C111.277 88.6 110.912 88.2759 110.217 87.3062C109.597 86.4417 109.653 86.2483 109 86V86Z" fill="#393939"/>
<path fill-rule="evenodd" clip-rule="evenodd" d="M114.163 87.0708C112.073 87.6861 113.088 90.4395 114.941 89.9397C116.756 89.4502 116.068 86.5099 114.163 87.0708Z" fill="#393939"/>
</g>
<path fill-rule="evenodd" clip-rule="evenodd" d="M125.29 141C125.959 144.031 127.787 147.359 129.054 150.416L135.356 164.326C135.977 165.648 136.132 166.34 136.694 167.48L142.913 181.525C144.495 184.897 144.227 185.932 146.251 186.976L162.498 150.583C163.756 147.804 164.428 147.223 163.895 145.854L163.311 145.054C163.872 145.462 163.414 145.885 163.712 144.648C163.555 144.706 163.4 144.791 163.262 144.872L161.717 146.04C161.245 146.576 161.105 146.93 160.733 147.401C157.212 151.851 149.311 162.388 143.38 159.586C140.425 158.19 137.916 155.765 135.997 153.336C134.122 150.961 132.708 149.72 130.01 146.004C127.605 142.692 127.822 141.951 125.29 141V141Z" fill="#393939"/>
<path fill-rule="evenodd" clip-rule="evenodd" d="M19 184.855V185.1C21.8792 184.98 31.1166 179.987 33.2877 178.389C37.8094 175.062 39.9725 171.938 40.0527 164.097C43.804 164.466 50.0701 166.286 53.3834 165.999C47.8473 163.854 25.2282 155.916 29.4993 147.035C31.0396 143.833 35.319 142.976 37.5142 142.092L39.0017 141.257C15.246 140.099 28.124 155.241 30.6047 160.613C33.2295 166.295 31.1883 170.73 28.4874 174.806C26.9356 177.148 21.1381 183.642 19 184.855V184.855Z" fill="#F7E805"/>
<path fill-rule="evenodd" clip-rule="evenodd" d="M97.476 178.127C96.9112 178.043 94.6664 177.91 94.5012 176.62C94.2885 174.961 95.7433 174.606 97.3248 174.728L97.476 178.127V178.127ZM89.5271 184.009C89.3296 189.081 88.6517 189.816 93.665 190.304C96.8963 190.618 100.012 190.345 102.093 188.415C105.411 185.336 104.901 174.244 102.192 171.313C94.5516 163.046 83.7861 172.836 89.5555 180.703C91.2067 182.955 93.0542 183.983 96.5689 183.961C94.5733 185.49 92.5571 184.334 89.5271 184.009V184.009Z" fill="#F7E805"/>
<path fill-rule="evenodd" clip-rule="evenodd" d="M197.159 175.943C197.902 176.353 197.958 174.198 197.93 179.912C197.924 181.265 197.936 182.621 197.936 184.082L203.317 183.934C203.356 182.324 203.391 180.681 203.367 179.071C203.33 176.56 202.49 175.702 203.62 174.645C202.631 172.756 202.167 169.711 197.354 168.752C188.212 166.93 184.86 176.289 188.21 181.709C190.525 185.455 193.933 185.18 197.357 185.18V179.102C196.37 178.301 193.535 178.602 194.183 176.515C194.73 174.756 196.132 175.799 197.159 175.943V175.943Z" fill="#393939"/>
<path fill-rule="evenodd" clip-rule="evenodd" d="M124.542 177.738C123.85 175.247 124.951 174.115 127.595 174.832L127.78 178.462C126.843 178.035 125.897 178.091 124.542 177.738ZM134.371 183.84C134.642 178.027 134.76 173.848 131.335 170.54C128.062 167.379 122.71 167.244 119.632 170.694C114.869 176.03 120.126 186.125 127.347 184.009C129.158 183.478 127.965 183.864 130.45 184.035C131.743 184.124 133.12 184.086 134.371 183.84Z" fill="#F7E805"/>
<path fill-rule="evenodd" clip-rule="evenodd" d="M50.9115 181.939C50.9545 178.211 50.1389 175.223 51.8344 174.363C52.5602 175.392 52.3718 176.429 52.3731 177.886L52.3779 182.671C52.8175 184.606 55.1088 184.032 58.776 184.029C58.9602 176.861 60.0501 170.581 53.8453 168.584C50.9467 167.651 47.5866 168.438 46.0002 170.026C44.2183 171.809 44.2908 174.703 44.2883 177.886C44.2839 183.366 43.7651 184.014 46.97 184.019L50.8927 183.869L50.9115 181.939V181.939Z" fill="#F7E805"/>
<path fill-rule="evenodd" clip-rule="evenodd" d="M174.649 178.901C173.461 178.637 173.069 178.785 172.757 178.247C172.47 177.753 172.63 176.263 172.631 175.47L175.845 175.336L175.789 169.023L172.63 168.97L172.55 165.712C172.394 164.706 172.791 164.321 170.222 164.086C166.395 163.737 165.338 163.797 165.338 165.725C165.338 178.903 163.106 186.856 175.67 184.977C175.836 183.868 175.922 183.049 175.915 181.917L175.468 179.104L174.649 178.901V178.901Z" fill="#393939"/>
<path fill-rule="evenodd" clip-rule="evenodd" d="M85.8688 173.832C85.5946 167.018 71.8561 165.231 70.9485 175.091C70.0505 184.846 82.5698 186.716 86.6087 181.154C86.0394 179.259 84.3899 178.823 83.0472 177.078C81.0959 177.829 76.3427 181.701 76.9778 174.873C77.3442 175.21 77.23 175.085 77.6131 175.582C77.6343 175.61 78.096 176.3 78.1227 176.342C78.4928 176.922 78.5765 177.168 79.0564 177.818L85.8688 173.832V173.832Z" fill="#F7E805"/>
<path fill-rule="evenodd" clip-rule="evenodd" d="M66.5023 174.313L69.624 174.221C69.6788 173.385 69.8008 170.502 69.6217 169.812C69.2111 168.232 68.4121 168.539 66.4822 168.508C66.4411 167.774 66.4956 166.735 66.4346 166.1C66.1682 163.331 65.2657 163.585 60.0965 163.853C59.6731 166.987 59.7009 175.454 60.0823 178.631C60.6488 183.349 64.6894 184.458 69.6442 183.986C69.6768 176.036 69.2106 179.779 66.4197 177.885L66.5023 174.313Z" fill="#F7E805"/>
<path fill-rule="evenodd" clip-rule="evenodd" d="M111.877 184.03C112.048 176.303 110.603 174.332 117.221 173.92C117.223 171.865 117.452 169.876 116.825 168.408C113.779 167.547 112.698 169.096 111.494 169.019C111.013 168.988 110.259 168.533 108.609 168.494C107.558 168.469 106.495 168.522 105.458 168.648C105.449 183.154 103.957 183.995 108.558 184.049C109.646 184.061 110.78 184.028 111.877 184.03V184.03Z" fill="#F7E805"/>
<path fill-rule="evenodd" clip-rule="evenodd" d="M182.472 174.612L185.545 174.489L185.61 169.774L182.518 169.598L182.295 165.038L177.143 165.025C176.72 168.136 176.781 175.873 177.022 179.123C177.402 184.25 180.573 184.385 185.71 184.303L185.612 179.792L182.668 179.089L182.472 174.612V174.612Z" fill="#393939"/>
<path fill-rule="evenodd" clip-rule="evenodd" d="M144.757 144.988C138.206 147.373 141.387 158.044 147.196 156.107C152.885 154.21 150.729 142.814 144.757 144.988Z" fill="#393939"/>
<path fill-rule="evenodd" clip-rule="evenodd" d="M157.96 184.649L158.6 184.898C159.312 184.273 158.16 184.59 160.045 184.221L163.81 184.236L163.715 169.926L158.527 169.939L158.524 181.534C158.524 184.04 158.847 183.458 157.96 184.649V184.649Z" fill="#393939"/>
<path fill-rule="evenodd" clip-rule="evenodd" d="M67.2263 167.507L70.4575 167.498C70.4903 165.273 69.8242 161.725 70.8863 160C72.1698 160.438 71.9912 159.512 71.553 161.355C71.4205 161.912 70.6136 161.312 71.0668 163.548C71.3999 165.191 71.2172 163.091 71.747 165.413C72.0758 166.854 71.3975 166.803 72.4209 167.441C76.2523 169.83 75.316 161.648 75.0836 160.246C74.5561 157.065 71.0991 155.586 68.5836 157.747C66.4973 159.539 67.16 164.318 67.2263 167.507Z" fill="#393939"/>
<path fill-rule="evenodd" clip-rule="evenodd" d="M112.337 167.45C112.622 165.619 111.985 163.88 113.044 162.658C114.072 163.96 113.453 165.665 113.744 167.512L116.393 167.452C116.845 165.481 115.976 163.978 117.098 162.651C118.171 163.914 117.39 165.587 117.805 167.488L120.439 167.445C122.634 157.237 115.182 160.35 115.042 160.351C113.837 160.357 107.809 157.66 109.691 167.508L112.337 167.45V167.45Z" fill="#393939"/>
<path fill-rule="evenodd" clip-rule="evenodd" d="M38.1809 148.622C32.1275 149.92 33.8646 157.39 40.0321 156.408C45.3264 155.565 44.3995 147.287 38.1809 148.622Z" fill="#F7E805"/>
<path fill-rule="evenodd" clip-rule="evenodd" d="M96.158 164.7C94.8392 164.871 94.9659 164.773 94.5601 163.698C95.8856 161.314 96.5256 164.68 96.3675 159.833C89.7144 159.924 91.0378 166.986 94.9186 167.65C100.279 168.567 100.412 161.179 99.5067 156.984L96.9216 156.967C96.4558 159.118 96.9905 161.099 96.7984 162.894C96.7417 163.422 96.7576 163.42 96.5914 163.91C96.3712 164.56 96.3867 164.401 96.158 164.7V164.7Z" fill="#393939"/>
<path fill-rule="evenodd" clip-rule="evenodd" d="M159.547 161.268C154.764 163.478 157.545 170.53 162.88 168.694C167.133 167.23 165.395 158.566 159.547 161.268Z" fill="#393939"/>
<path fill-rule="evenodd" clip-rule="evenodd" d="M130.34 167.589C130.977 162.386 128.992 166.472 128.634 163.456C129.607 162.572 128.724 162.834 130.468 162.909L130.891 167.472L133.784 167.456C133.813 165.265 133.962 162.879 132.81 161.366C131.842 160.095 129.716 159.257 127.522 160.332C124.639 161.745 124.653 167.966 130.34 167.589Z" fill="#393939"/>
<path fill-rule="evenodd" clip-rule="evenodd" d="M87.1999 167.676C87.2626 167.15 87.4044 166.638 87.3088 166.099C87.061 164.701 87.2846 165.552 86.4695 164.702C85.661 163.859 84.6494 163.67 86.6955 162.752C88.3932 163.752 87.8261 165.336 87.7818 167.493L90.7255 167.505C91.0283 155.236 81.5817 159.565 82.7518 164.78C83.2283 166.904 84.775 167.574 87.1999 167.676V167.676Z" fill="#393939"/>
<path fill-rule="evenodd" clip-rule="evenodd" d="M108.396 165.972L107.333 164.557C105.955 164.675 105.291 165.56 104.353 165.038C102.875 164.214 103.423 162.872 104.531 162.166C105.515 163.374 104.424 161.068 104.436 163.451C104.442 164.736 104.067 164.338 105.238 164.372C106.137 164.397 107.889 163.136 108.38 162.482C106.666 158.545 101.226 159.148 100.839 163.318C100.382 168.239 105.97 168.731 108.396 165.972Z" fill="#393939"/>
<path fill-rule="evenodd" clip-rule="evenodd" d="M81.6731 165.32C80.1294 164.304 80.5721 165.684 79.3306 164.104C79.7573 161.725 80.0573 163.435 81.6814 162.077L81.6813 160.189C75.1535 159.033 74.8971 166.004 78.9475 167.434C81.533 168.348 81.691 167.483 81.6731 165.32V165.32Z" fill="#393939"/>
<path fill-rule="evenodd" clip-rule="evenodd" d="M157.96 184.649C158.847 183.458 158.524 184.04 158.524 181.534L158.527 169.939L163.715 169.926L163.81 184.236L160.045 184.221C158.16 184.59 159.312 184.273 158.6 184.898L164.347 184.797L164.32 169.23L157.983 169.254L157.96 184.649V184.649Z" fill="#393939" stroke="#393939" stroke-width="0.0762" stroke-miterlimit="22.9256"/>
<path fill-rule="evenodd" clip-rule="evenodd" d="M121.962 167.414L124.575 167.524L124.59 160.029L121.707 160.097C121.603 162.397 121.203 165.557 121.962 167.414Z" fill="#393939"/>
<path fill-rule="evenodd" clip-rule="evenodd" d="M197.159 175.943L197.146 184.643L203.63 184.562C204.472 181.389 203.612 177.865 203.62 174.645C202.49 175.702 203.33 176.56 203.367 179.071C203.391 180.681 203.356 182.324 203.317 183.934L197.936 184.082C197.936 182.621 197.924 181.265 197.93 179.912C197.958 174.198 197.902 176.353 197.159 175.943V175.943Z" fill="#393939"/>
<path fill-rule="evenodd" clip-rule="evenodd" d="M124.542 177.738C125.897 178.091 126.843 178.035 127.78 178.462L127.595 174.832C124.951 174.115 123.85 175.247 124.542 177.738Z" fill="#FFFFFD"/>
<path fill-rule="evenodd" clip-rule="evenodd" d="M124.562 159.006C125.061 156.693 123.793 154.6 121.933 156.4C120.246 158.034 122.071 159.71 124.562 159.006Z" fill="#393939"/>
<path fill-rule="evenodd" clip-rule="evenodd" d="M97.476 178.127L97.3248 174.728C95.7433 174.606 94.2885 174.961 94.5012 176.62C94.6664 177.91 96.9112 178.043 97.476 178.127V178.127Z" fill="#FFFFFD"/>
<defs>
<clipPath id="clip0">
<rect width="219" height="134" fill="white"/>
</clipPath>
</defs>
</svg>
