<?xml version="1.0"?>
<svg xmlns="http://www.w3.org/2000/svg" xmlns:xlink="http://www.w3.org/1999/xlink" xmlns:svgjs="http://svgjs.com/svgjs" version="1.1" width="512" height="512" x="0" y="0" viewBox="0 0 512 512" style="enable-background:new 0 0 512 512" xml:space="preserve" class=""><g><path xmlns="http://www.w3.org/2000/svg" d="m437.019531 74.980469c-48.351562-48.351563-112.640625-74.980469-181.019531-74.980469-68.382812 0-132.667969 26.628906-181.019531 74.980469-48.351563 48.351562-74.980469 112.636719-74.980469 181.019531 0 68.378906 26.628906 132.667969 74.980469 181.019531 48.351562 48.351563 112.636719 74.980469 181.019531 74.980469 68.378906 0 132.667969-26.628906 181.019531-74.980469 48.351563-48.351562 74.980469-112.640625 74.980469-181.019531 0-68.382812-26.628906-132.667969-74.980469-181.019531zm0 0" fill="#f9ea09" data-original="#1de8f1" style="" class=""/><path xmlns="http://www.w3.org/2000/svg" d="m437.019531 74.980469c-48.351562-48.351563-112.640625-74.980469-181.019531-74.980469v512c68.378906 0 132.667969-26.628906 181.019531-74.980469 48.351563-48.351562 74.980469-112.640625 74.980469-181.019531 0-68.382812-26.628906-132.667969-74.980469-181.019531zm0 0" fill="#f2c13b" data-original="#00c7ce" style="" class=""/><path xmlns="http://www.w3.org/2000/svg" d="m363.058594 346.488281c-13.789063-12.476562-29.484375-22.324219-46.359375-29.257812 30.5-19.894531 50.703125-54.3125 50.703125-93.363281 0-61.425782-49.976563-111.398438-111.402344-111.398438s-111.398438 49.972656-111.398438 111.398438c0 39.050781 20.199219 73.46875 50.699219 93.363281-16.875 6.933593-32.570312 16.78125-46.359375 29.257812-22.476562 20.335938-38.519531 46.371094-46.601562 75.070313 40.355468 37.480468 94.371094 60.441406 153.660156 60.441406s113.304688-22.960938 153.660156-60.441406c-8.082031-28.699219-24.125-54.734375-46.601562-75.070313zm0 0" fill="#161925" data-original="#e7f0ef" style="" class=""/><path xmlns="http://www.w3.org/2000/svg" d="m363.058594 346.488281c-13.789063-12.476562-29.484375-22.324219-46.359375-29.257812 30.5-19.894531 50.703125-54.3125 50.703125-93.363281 0-61.425782-49.976563-111.398438-111.402344-111.398438v369.53125c59.289062 0 113.308594-22.960938 153.660156-60.441406-8.082031-28.699219-24.125-54.734375-46.601562-75.070313zm0 0" fill="#161925" data-original="#c5e1e6" style="" class=""/></g></svg>
